<svg width="430" height="430" viewBox="0 0 430 430" fill="none" xmlns="http://www.w3.org/2000/svg">
<path d="M0 0H430V430H0V0Z" fill="#FFFCF7"/>
<path d="M0 0H430V430H0V0Z" fill="#FFEFCC"/>
<rect x="78.5" y="83.5" width="268" height="268" rx="19.5" stroke="#F29E1F" stroke-dasharray="4 4"/>
<path d="M155.697 245.144C156.433 245.325 157.009 245.656 157.425 246.136C157.852 246.616 158.065 247.192 158.065 247.864C158.065 248.515 157.863 249.085 157.457 249.576C157.052 250.067 156.513 250.445 155.841 250.712C155.169 250.968 154.439 251.096 153.649 251.096C152.903 251.096 152.167 250.979 151.441 250.744C150.727 250.499 150.081 250.136 149.505 249.656L149.937 248.808C150.428 249.224 150.988 249.544 151.617 249.768C152.247 249.981 152.881 250.088 153.521 250.088C154.129 250.088 154.689 249.992 155.201 249.8C155.713 249.608 156.119 249.336 156.417 248.984C156.727 248.621 156.881 248.195 156.881 247.704C156.881 247.053 156.625 246.552 156.113 246.2C155.601 245.848 154.881 245.672 153.953 245.672H151.553V244.712H153.889C154.679 244.712 155.292 244.547 155.729 244.216C156.177 243.875 156.401 243.405 156.401 242.808C156.401 242.147 156.119 241.629 155.553 241.256C154.988 240.872 154.279 240.68 153.425 240.68C152.892 240.68 152.353 240.76 151.809 240.92C151.265 241.069 150.748 241.299 150.257 241.608L149.857 240.632C150.967 239.971 152.167 239.64 153.457 239.64C154.215 239.64 154.908 239.763 155.537 240.008C156.167 240.253 156.663 240.605 157.025 241.064C157.399 241.523 157.585 242.061 157.585 242.68C157.585 243.277 157.42 243.795 157.089 244.232C156.759 244.659 156.295 244.963 155.697 245.144ZM163.629 242.52C164.728 242.52 165.571 242.797 166.157 243.352C166.744 243.896 167.037 244.707 167.037 245.784V251H165.949V249.688C165.693 250.125 165.315 250.467 164.813 250.712C164.323 250.957 163.736 251.08 163.053 251.08C162.115 251.08 161.368 250.856 160.813 250.408C160.259 249.96 159.981 249.368 159.981 248.632C159.981 247.917 160.237 247.341 160.749 246.904C161.272 246.467 162.099 246.248 163.229 246.248H165.901V245.736C165.901 245.011 165.699 244.461 165.293 244.088C164.888 243.704 164.296 243.512 163.517 243.512C162.984 243.512 162.472 243.603 161.981 243.784C161.491 243.955 161.069 244.195 160.717 244.504L160.205 243.656C160.632 243.293 161.144 243.016 161.741 242.824C162.339 242.621 162.968 242.52 163.629 242.52ZM163.229 250.184C163.869 250.184 164.419 250.04 164.877 249.752C165.336 249.453 165.677 249.027 165.901 248.472V247.096H163.261C161.821 247.096 161.101 247.597 161.101 248.6C161.101 249.091 161.288 249.48 161.661 249.768C162.035 250.045 162.557 250.184 163.229 250.184ZM176.013 243.592H171.197V251H170.061V242.584H176.013V243.592ZM181.991 242.52C182.78 242.52 183.495 242.701 184.135 243.064C184.775 243.416 185.276 243.917 185.639 244.568C186.002 245.219 186.183 245.96 186.183 246.792C186.183 247.635 186.002 248.381 185.639 249.032C185.276 249.683 184.775 250.189 184.135 250.552C183.506 250.904 182.791 251.08 181.991 251.08C181.308 251.08 180.69 250.941 180.135 250.664C179.591 250.376 179.143 249.96 178.791 249.416V254.104H177.655V242.584H178.743V244.248C179.084 243.693 179.532 243.267 180.087 242.968C180.652 242.669 181.287 242.52 181.991 242.52ZM181.911 250.072C182.498 250.072 183.031 249.939 183.511 249.672C183.991 249.395 184.364 249.005 184.631 248.504C184.908 248.003 185.047 247.432 185.047 246.792C185.047 246.152 184.908 245.587 184.631 245.096C184.364 244.595 183.991 244.205 183.511 243.928C183.031 243.651 182.498 243.512 181.911 243.512C181.314 243.512 180.775 243.651 180.295 243.928C179.826 244.205 179.452 244.595 179.175 245.096C178.908 245.587 178.775 246.152 178.775 246.792C178.775 247.432 178.908 248.003 179.175 248.504C179.452 249.005 179.826 249.395 180.295 249.672C180.775 249.939 181.314 250.072 181.911 250.072ZM195.541 242.584L191.333 252.008C190.992 252.797 190.597 253.357 190.149 253.688C189.701 254.019 189.163 254.184 188.533 254.184C188.128 254.184 187.749 254.12 187.397 253.992C187.045 253.864 186.741 253.672 186.485 253.416L187.013 252.568C187.44 252.995 187.952 253.208 188.549 253.208C188.933 253.208 189.259 253.101 189.525 252.888C189.803 252.675 190.059 252.312 190.293 251.8L190.661 250.984L186.901 242.584H188.085L191.253 249.736L194.421 242.584H195.541ZM201.189 246.616C201.786 246.755 202.245 246.995 202.565 247.336C202.895 247.677 203.061 248.093 203.061 248.584C203.061 249.075 202.89 249.512 202.549 249.896C202.218 250.28 201.765 250.579 201.189 250.792C200.613 250.995 199.978 251.096 199.285 251.096C198.677 251.096 198.079 251.011 197.493 250.84C196.906 250.659 196.394 250.397 195.957 250.056L196.341 249.208C196.725 249.496 197.173 249.72 197.685 249.88C198.197 250.04 198.714 250.12 199.237 250.12C200.015 250.12 200.65 249.976 201.141 249.688C201.642 249.389 201.893 248.989 201.893 248.488C201.893 248.04 201.69 247.693 201.285 247.448C200.879 247.192 200.325 247.064 199.621 247.064H198.181V246.232H199.557C200.186 246.232 200.693 246.115 201.077 245.88C201.461 245.635 201.653 245.309 201.653 244.904C201.653 244.456 201.434 244.104 200.997 243.848C200.57 243.592 200.01 243.464 199.317 243.464C198.41 243.464 197.514 243.693 196.629 244.152L196.309 243.272C197.311 242.749 198.351 242.488 199.429 242.488C200.069 242.488 200.645 242.584 201.157 242.776C201.679 242.957 202.085 243.219 202.373 243.56C202.671 243.901 202.821 244.296 202.821 244.744C202.821 245.171 202.671 245.549 202.373 245.88C202.085 246.211 201.69 246.456 201.189 246.616ZM205.639 242.584H206.775V249.272L212.391 242.584H213.399V251H212.263V244.312L206.663 251H205.639V242.584ZM222.575 243.592H219.391V251H218.255V243.592H215.071V242.584H222.575V243.592ZM231.187 247.144H224.147C224.211 248.019 224.547 248.728 225.155 249.272C225.763 249.805 226.531 250.072 227.459 250.072C227.982 250.072 228.462 249.981 228.899 249.8C229.336 249.608 229.715 249.331 230.035 248.968L230.675 249.704C230.302 250.152 229.832 250.493 229.267 250.728C228.712 250.963 228.099 251.08 227.427 251.08C226.563 251.08 225.795 250.899 225.123 250.536C224.462 250.163 223.944 249.651 223.571 249C223.198 248.349 223.011 247.613 223.011 246.792C223.011 245.971 223.187 245.235 223.539 244.584C223.902 243.933 224.392 243.427 225.011 243.064C225.64 242.701 226.344 242.52 227.123 242.52C227.902 242.52 228.6 242.701 229.219 243.064C229.838 243.427 230.323 243.933 230.675 244.584C231.027 245.224 231.203 245.96 231.203 246.792L231.187 247.144ZM227.123 243.496C226.312 243.496 225.63 243.757 225.075 244.28C224.531 244.792 224.222 245.464 224.147 246.296H230.115C230.04 245.464 229.726 244.792 229.171 244.28C228.627 243.757 227.944 243.496 227.123 243.496ZM248.065 246.776C248.065 248.088 247.633 249.117 246.769 249.864C245.905 250.611 244.684 251.016 243.105 251.08V254.104H242.001V251.096C240.433 251.032 239.217 250.627 238.353 249.88C237.5 249.123 237.073 248.088 237.073 246.776C237.073 245.475 237.5 244.456 238.353 243.72C239.217 242.984 240.433 242.584 242.001 242.52V239.128H243.105V242.52C244.684 242.595 245.905 243 246.769 243.736C247.633 244.472 248.065 245.485 248.065 246.776ZM238.193 246.776C238.193 247.779 238.513 248.563 239.153 249.128C239.804 249.693 240.753 250.013 242.001 250.088V243.528C240.764 243.592 239.82 243.907 239.169 244.472C238.518 245.027 238.193 245.795 238.193 246.776ZM243.105 250.088C244.353 250.024 245.302 249.709 245.953 249.144C246.614 248.579 246.945 247.789 246.945 246.776C246.945 245.784 246.614 245.011 245.953 244.456C245.302 243.901 244.353 243.592 243.105 243.528V250.088ZM253.94 251.08C253.129 251.08 252.398 250.899 251.748 250.536C251.097 250.163 250.585 249.651 250.212 249C249.838 248.349 249.652 247.613 249.652 246.792C249.652 245.971 249.838 245.235 250.212 244.584C250.585 243.933 251.097 243.427 251.748 243.064C252.398 242.701 253.129 242.52 253.94 242.52C254.75 242.52 255.481 242.701 256.132 243.064C256.782 243.427 257.289 243.933 257.652 244.584C258.025 245.235 258.212 245.971 258.212 246.792C258.212 247.613 258.025 248.349 257.652 249C257.289 249.651 256.782 250.163 256.132 250.536C255.481 250.899 254.75 251.08 253.94 251.08ZM253.94 250.072C254.537 250.072 255.07 249.939 255.54 249.672C256.02 249.395 256.393 249.005 256.66 248.504C256.926 248.003 257.06 247.432 257.06 246.792C257.06 246.152 256.926 245.581 256.66 245.08C256.393 244.579 256.02 244.195 255.54 243.928C255.07 243.651 254.537 243.512 253.94 243.512C253.342 243.512 252.804 243.651 252.324 243.928C251.854 244.195 251.481 244.579 251.204 245.08C250.937 245.581 250.804 246.152 250.804 246.792C250.804 247.432 250.937 248.003 251.204 248.504C251.481 249.005 251.854 249.395 252.324 249.672C252.804 249.939 253.342 250.072 253.94 250.072ZM266.247 243.592H263.063V251H261.927V243.592H258.743V242.584H266.247V243.592ZM270.971 251.08C270.16 251.08 269.429 250.899 268.779 250.536C268.128 250.163 267.616 249.651 267.243 249C266.869 248.349 266.683 247.613 266.683 246.792C266.683 245.971 266.869 245.235 267.243 244.584C267.616 243.933 268.128 243.427 268.779 243.064C269.429 242.701 270.16 242.52 270.971 242.52C271.781 242.52 272.512 242.701 273.163 243.064C273.813 243.427 274.32 243.933 274.683 244.584C275.056 245.235 275.243 245.971 275.243 246.792C275.243 247.613 275.056 248.349 274.683 249C274.32 249.651 273.813 250.163 273.163 250.536C272.512 250.899 271.781 251.08 270.971 251.08ZM270.971 250.072C271.568 250.072 272.101 249.939 272.571 249.672C273.051 249.395 273.424 249.005 273.691 248.504C273.957 248.003 274.091 247.432 274.091 246.792C274.091 246.152 273.957 245.581 273.691 245.08C273.424 244.579 273.051 244.195 272.571 243.928C272.101 243.651 271.568 243.512 270.971 243.512C270.373 243.512 269.835 243.651 269.355 243.928C268.885 244.195 268.512 244.579 268.235 245.08C267.968 245.581 267.835 246.152 267.835 246.792C267.835 247.432 267.968 248.003 268.235 248.504C268.512 249.005 268.885 249.395 269.355 249.672C269.835 249.939 270.373 250.072 270.971 250.072ZM155.052 263.592H150.236V271H149.1V262.584H155.052V263.592ZM159.776 271.08C158.965 271.08 158.234 270.899 157.584 270.536C156.933 270.163 156.421 269.651 156.048 269C155.674 268.349 155.488 267.613 155.488 266.792C155.488 265.971 155.674 265.235 156.048 264.584C156.421 263.933 156.933 263.427 157.584 263.064C158.234 262.701 158.965 262.52 159.776 262.52C160.586 262.52 161.317 262.701 161.968 263.064C162.618 263.427 163.125 263.933 163.488 264.584C163.861 265.235 164.048 265.971 164.048 266.792C164.048 267.613 163.861 268.349 163.488 269C163.125 269.651 162.618 270.163 161.968 270.536C161.317 270.899 160.586 271.08 159.776 271.08ZM159.776 270.072C160.373 270.072 160.906 269.939 161.376 269.672C161.856 269.395 162.229 269.005 162.496 268.504C162.762 268.003 162.896 267.432 162.896 266.792C162.896 266.152 162.762 265.581 162.496 265.08C162.229 264.579 161.856 264.195 161.376 263.928C160.906 263.651 160.373 263.512 159.776 263.512C159.178 263.512 158.64 263.651 158.16 263.928C157.69 264.195 157.317 264.579 157.039 265.08C156.773 265.581 156.64 266.152 156.64 266.792C156.64 267.432 156.773 268.003 157.039 268.504C157.317 269.005 157.69 269.395 158.16 269.672C158.64 269.939 159.178 270.072 159.776 270.072ZM172.083 263.592H168.899V271H167.763V263.592H164.579V262.584H172.083V263.592ZM176.807 271.08C175.996 271.08 175.265 270.899 174.615 270.536C173.964 270.163 173.452 269.651 173.079 269C172.705 268.349 172.519 267.613 172.519 266.792C172.519 265.971 172.705 265.235 173.079 264.584C173.452 263.933 173.964 263.427 174.615 263.064C175.265 262.701 175.996 262.52 176.807 262.52C177.617 262.52 178.348 262.701 178.999 263.064C179.649 263.427 180.156 263.933 180.519 264.584C180.892 265.235 181.079 265.971 181.079 266.792C181.079 267.613 180.892 268.349 180.519 269C180.156 269.651 179.649 270.163 178.999 270.536C178.348 270.899 177.617 271.08 176.807 271.08ZM176.807 270.072C177.404 270.072 177.937 269.939 178.407 269.672C178.887 269.395 179.26 269.005 179.527 268.504C179.793 268.003 179.927 267.432 179.927 266.792C179.927 266.152 179.793 265.581 179.527 265.08C179.26 264.579 178.887 264.195 178.407 263.928C177.937 263.651 177.404 263.512 176.807 263.512C176.209 263.512 175.671 263.651 175.191 263.928C174.721 264.195 174.348 264.579 174.071 265.08C173.804 265.581 173.671 266.152 173.671 266.792C173.671 267.432 173.804 268.003 174.071 268.504C174.348 269.005 174.721 269.395 175.191 269.672C175.671 269.939 176.209 270.072 176.807 270.072ZM188.867 266.648C190.008 266.915 190.579 267.603 190.579 268.712C190.579 269.448 190.307 270.013 189.763 270.408C189.219 270.803 188.408 271 187.331 271H183.507V262.584H187.219C188.179 262.584 188.931 262.771 189.475 263.144C190.019 263.517 190.291 264.051 190.291 264.744C190.291 265.203 190.163 265.597 189.907 265.928C189.661 266.248 189.315 266.488 188.867 266.648ZM184.611 266.328H187.139C187.789 266.328 188.285 266.205 188.627 265.96C188.979 265.715 189.155 265.357 189.155 264.888C189.155 264.419 188.979 264.067 188.627 263.832C188.285 263.597 187.789 263.48 187.139 263.48H184.611V266.328ZM187.283 270.104C188.008 270.104 188.552 269.987 188.915 269.752C189.277 269.517 189.459 269.149 189.459 268.648C189.459 268.147 189.293 267.779 188.963 267.544C188.632 267.299 188.109 267.176 187.395 267.176H184.611V270.104H187.283ZM196.713 271.08C195.902 271.08 195.172 270.899 194.521 270.536C193.87 270.163 193.358 269.651 192.985 269C192.612 268.349 192.425 267.613 192.425 266.792C192.425 265.971 192.612 265.235 192.985 264.584C193.358 263.933 193.87 263.427 194.521 263.064C195.172 262.701 195.902 262.52 196.713 262.52C197.524 262.52 198.254 262.701 198.905 263.064C199.556 263.427 200.062 263.933 200.425 264.584C200.798 265.235 200.985 265.971 200.985 266.792C200.985 267.613 200.798 268.349 200.425 269C200.062 269.651 199.556 270.163 198.905 270.536C198.254 270.899 197.524 271.08 196.713 271.08ZM196.713 270.072C197.31 270.072 197.844 269.939 198.313 269.672C198.793 269.395 199.166 269.005 199.433 268.504C199.7 268.003 199.833 267.432 199.833 266.792C199.833 266.152 199.7 265.581 199.433 265.08C199.166 264.579 198.793 264.195 198.313 263.928C197.844 263.651 197.31 263.512 196.713 263.512C196.116 263.512 195.577 263.651 195.097 263.928C194.628 264.195 194.254 264.579 193.977 265.08C193.71 265.581 193.577 266.152 193.577 266.792C193.577 267.432 193.71 268.003 193.977 268.504C194.254 269.005 194.628 269.395 195.097 269.672C195.577 269.939 196.116 270.072 196.713 270.072ZM209.365 263.592H204.549V271H203.413V262.584H209.365V263.592ZM214.088 271.08C213.277 271.08 212.547 270.899 211.896 270.536C211.245 270.163 210.733 269.651 210.36 269C209.987 268.349 209.8 267.613 209.8 266.792C209.8 265.971 209.987 265.235 210.36 264.584C210.733 263.933 211.245 263.427 211.896 263.064C212.547 262.701 213.277 262.52 214.088 262.52C214.899 262.52 215.629 262.701 216.28 263.064C216.931 263.427 217.437 263.933 217.8 264.584C218.173 265.235 218.36 265.971 218.36 266.792C218.36 267.613 218.173 268.349 217.8 269C217.437 269.651 216.931 270.163 216.28 270.536C215.629 270.899 214.899 271.08 214.088 271.08ZM214.088 270.072C214.685 270.072 215.219 269.939 215.688 269.672C216.168 269.395 216.541 269.005 216.808 268.504C217.075 268.003 217.208 267.432 217.208 266.792C217.208 266.152 217.075 265.581 216.808 265.08C216.541 264.579 216.168 264.195 215.688 263.928C215.219 263.651 214.685 263.512 214.088 263.512C213.491 263.512 212.952 263.651 212.472 263.928C212.003 264.195 211.629 264.579 211.352 265.08C211.085 265.581 210.952 266.152 210.952 266.792C210.952 267.432 211.085 268.003 211.352 268.504C211.629 269.005 212.003 269.395 212.472 269.672C212.952 269.939 213.491 270.072 214.088 270.072ZM229.055 262.792C229.834 262.792 230.527 262.968 231.135 263.32C231.754 263.661 232.234 264.147 232.575 264.776C232.917 265.395 233.087 266.104 233.087 266.904C233.087 267.725 232.906 268.456 232.543 269.096C232.191 269.725 231.695 270.216 231.055 270.568C230.415 270.92 229.679 271.096 228.847 271.096C227.45 271.096 226.367 270.605 225.599 269.624C224.831 268.643 224.447 267.288 224.447 265.56C224.447 263.757 224.789 262.376 225.471 261.416C226.165 260.456 227.242 259.805 228.703 259.464L232.479 258.6L232.671 259.64L229.119 260.456C227.914 260.723 227.029 261.197 226.463 261.88C225.898 262.552 225.589 263.549 225.535 264.872C225.877 264.221 226.351 263.715 226.959 263.352C227.567 262.979 228.266 262.792 229.055 262.792ZM228.879 270.152C229.466 270.152 229.989 270.019 230.447 269.752C230.917 269.475 231.279 269.091 231.535 268.6C231.802 268.109 231.935 267.555 231.935 266.936C231.935 266.317 231.807 265.773 231.551 265.304C231.295 264.835 230.933 264.472 230.463 264.216C230.005 263.949 229.477 263.816 228.879 263.816C228.282 263.816 227.749 263.949 227.279 264.216C226.821 264.472 226.458 264.835 226.191 265.304C225.935 265.773 225.807 266.317 225.807 266.936C225.807 267.555 225.935 268.109 226.191 268.6C226.458 269.091 226.826 269.475 227.295 269.752C227.765 270.019 228.293 270.152 228.879 270.152ZM242.355 262.584V271H241.219V263.592H237.187L237.075 265.672C236.99 267.421 236.787 268.765 236.467 269.704C236.147 270.643 235.577 271.112 234.755 271.112C234.531 271.112 234.259 271.069 233.939 270.984L234.019 270.008C234.211 270.051 234.345 270.072 234.419 270.072C234.857 270.072 235.187 269.869 235.411 269.464C235.635 269.059 235.785 268.557 235.859 267.96C235.934 267.363 235.998 266.573 236.051 265.592L236.195 262.584H242.355ZM252.817 262.52C253.606 262.52 254.315 262.701 254.945 263.064C255.585 263.427 256.086 263.933 256.449 264.584C256.811 265.235 256.993 265.971 256.993 266.792C256.993 267.613 256.811 268.349 256.449 269C256.086 269.651 255.585 270.163 254.945 270.536C254.315 270.899 253.606 271.08 252.817 271.08C252.07 271.08 251.393 270.92 250.785 270.6C250.177 270.269 249.681 269.816 249.297 269.24C248.923 268.664 248.705 268.003 248.641 267.256H246.721V271H245.585V262.584H246.721V266.216H248.657C248.742 265.491 248.971 264.851 249.345 264.296C249.729 263.731 250.219 263.293 250.817 262.984C251.414 262.675 252.081 262.52 252.817 262.52ZM252.817 270.088C253.393 270.088 253.91 269.949 254.369 269.672C254.838 269.395 255.206 269.005 255.473 268.504C255.739 268.003 255.873 267.432 255.873 266.792C255.873 266.152 255.739 265.581 255.473 265.08C255.206 264.579 254.838 264.195 254.369 263.928C253.91 263.651 253.393 263.512 252.817 263.512C252.241 263.512 251.718 263.651 251.249 263.928C250.79 264.195 250.427 264.579 250.161 265.08C249.894 265.581 249.761 266.152 249.761 266.792C249.761 267.432 249.894 268.003 250.161 268.504C250.427 269.005 250.79 269.395 251.249 269.672C251.718 269.949 252.241 270.088 252.817 270.088ZM267.59 270.008V273.032H266.518V271H258.982V273.032H257.91V270.008H258.39C258.955 269.976 259.339 269.56 259.542 268.76C259.744 267.96 259.883 266.84 259.958 265.4L260.07 262.584H266.278V270.008H267.59ZM260.998 265.464C260.944 266.659 260.843 267.645 260.694 268.424C260.544 269.192 260.278 269.72 259.894 270.008H265.142V263.592H261.094L260.998 265.464ZM272.7 262.52C273.798 262.52 274.641 262.797 275.228 263.352C275.814 263.896 276.108 264.707 276.108 265.784V271H275.02V269.688C274.764 270.125 274.385 270.467 273.884 270.712C273.393 270.957 272.806 271.08 272.124 271.08C271.185 271.08 270.438 270.856 269.884 270.408C269.329 269.96 269.052 269.368 269.052 268.632C269.052 267.917 269.308 267.341 269.82 266.904C270.342 266.467 271.169 266.248 272.299 266.248H274.972V265.736C274.972 265.011 274.769 264.461 274.364 264.088C273.958 263.704 273.366 263.512 272.588 263.512C272.054 263.512 271.542 263.603 271.052 263.784C270.561 263.955 270.14 264.195 269.788 264.504L269.276 263.656C269.702 263.293 270.214 263.016 270.812 262.824C271.409 262.621 272.038 262.52 272.7 262.52ZM272.299 270.184C272.94 270.184 273.489 270.04 273.948 269.752C274.406 269.453 274.748 269.027 274.972 268.472V267.096H272.332C270.892 267.096 270.172 267.597 270.172 268.6C270.172 269.091 270.358 269.48 270.732 269.768C271.105 270.045 271.628 270.184 272.299 270.184Z" fill="#F29E1F"/>
<g clip-path="url(#clip0_229_125)">
<path d="M203.566 166.523C206.189 164.26 209.536 163.011 213 163C220.061 163 225.923 168.25 226.561 175.02C230.74 175.61 234 179.11 234 183.404C234 188.119 230.068 191.875 225.303 191.875H218.25C217.902 191.875 217.568 191.737 217.322 191.491C217.076 191.244 216.938 190.911 216.938 190.562C216.938 190.214 217.076 189.881 217.322 189.634C217.568 189.388 217.902 189.25 218.25 189.25H225.306C228.695 189.25 231.375 186.593 231.375 183.404C231.375 180.212 228.698 177.556 225.303 177.556H223.991V176.243C223.994 170.416 219.111 165.625 213 165.625C210.165 165.636 207.427 166.66 205.28 168.512C203.293 170.224 202.253 172.287 202.253 173.907V175.083L201.085 175.211C197.418 175.613 194.625 178.624 194.625 182.21C194.625 186.061 197.854 189.25 201.925 189.25H207.75C208.098 189.25 208.432 189.388 208.678 189.634C208.924 189.881 209.062 190.214 209.062 190.562C209.062 190.911 208.924 191.244 208.678 191.491C208.432 191.737 208.098 191.875 207.75 191.875H201.925C196.483 191.875 192 187.586 192 182.21C192 177.582 195.323 173.749 199.723 172.778C200.098 170.513 201.555 168.255 203.566 166.523V166.523Z" fill="#F29E1F"/>
<path d="M212.071 204.617C212.193 204.739 212.338 204.836 212.497 204.902C212.657 204.968 212.828 205.002 213 205.002C213.173 205.002 213.344 204.968 213.503 204.902C213.663 204.836 213.808 204.739 213.929 204.617L221.804 196.742C222.051 196.495 222.189 196.161 222.189 195.813C222.189 195.464 222.051 195.13 221.804 194.883C221.558 194.637 221.224 194.498 220.875 194.498C220.527 194.498 220.192 194.637 219.946 194.883L214.313 200.519V177.438C214.313 177.089 214.174 176.756 213.928 176.509C213.682 176.263 213.348 176.125 213 176.125C212.652 176.125 212.318 176.263 212.072 176.509C211.826 176.756 211.688 177.089 211.688 177.438V200.519L206.054 194.883C205.808 194.637 205.474 194.498 205.125 194.498C204.777 194.498 204.442 194.637 204.196 194.883C203.949 195.13 203.811 195.464 203.811 195.813C203.811 196.161 203.949 196.495 204.196 196.742L212.071 204.617Z" fill="#F29E1F"/>
</g>
<defs>
<clipPath id="clip0_229_125">
<rect width="42" height="42" fill="white" transform="translate(192 163)"/>
</clipPath>
</defs>
</svg>
